<svg width="39" height="72" fill="none" xmlns="http://www.w3.org/2000/svg"><path d="M9.345 42.715l8.006-18.44h2.685v5.217l-5.681 13.223h4.235v-2.376c0-.579.964-.62 1.446-.569v7.283c-1.322 0-1.515-.447-1.446-.671v-2.066h-5.01L1.184 72H.72l3.151-9.555s-2.79-1.085-1.86-3.41c.93-2.323 6.508-14.72 6.508-14.72H2.011v-1.6h7.334z" fill="url(#paint0_linear_166612:3191)"/><path d="M30.211 42.715l-8.005-18.44H19.52v5.217l5.68 13.223h-4.235v-2.376c0-.579-.964-.62-1.446-.569v7.283c1.322 0 1.515-.447 1.446-.671v-2.066h5.01L38.372 72h.465l-3.15-9.555s2.788-1.085 1.859-3.41c-.93-2.323-6.508-14.72-6.508-14.72h6.508v-1.6H30.21z" fill="url(#paint1_linear_166612:3191)"/><path fill-rule="evenodd" clip-rule="evenodd" d="M19.83 21.59a5.475 5.475 0 100-10.95 5.475 5.475 0 000 10.95zm0 2.995a8.47 8.47 0 100-16.94 8.47 8.47 0 000 16.94z" fill="#333"/><path d="M18.28 0h3.1v8.16h-3.1V0z" fill="#333"/><defs><linearGradient id="paint0_linear_166612:3191" x1="19.778" y1="24.276" x2="19.778" y2="72" gradientUnits="userSpaceOnUse"><stop stop-color="#FFA948"/><stop offset=".516" stop-color="#FF6E14"/></linearGradient><linearGradient id="paint1_linear_166612:3191" x1="19.778" y1="24.276" x2="19.778" y2="72" gradientUnits="userSpaceOnUse"><stop stop-color="#FFA948"/><stop offset=".516" stop-color="#FF6E14"/></linearGradient></defs></svg>